<svg width="36" height="36" viewBox="0 0 36 36" fill="none" xmlns="http://www.w3.org/2000/svg">
<path d="M24.882 20.6668L23.8876 19.7728V11.9938C23.8876 10.4025 23.2584 8.87641 22.1385 7.75119C21.0185 6.62598 19.4996 5.99384 17.9157 5.99384C16.3319 5.99384 14.8129 6.62598 13.6929 7.75119C12.573 8.87641 11.9438 10.4025 11.9438 11.9938V19.7728L10.9495 20.6668C9.50659 21.9605 8.45004 23.6317 7.89784 25.4938H27.9336C27.3814 23.6317 26.3248 21.9605 24.882 20.6668ZM22.3947 28.4938C22.3947 29.6873 21.9228 30.8319 21.0828 31.6758C20.2428 32.5197 19.1036 32.9938 17.9157 32.9938C16.7278 32.9938 15.5886 32.5197 14.7486 31.6758C13.9087 30.8319 13.4368 29.6873 13.4368 28.4938H4.47892C4.47689 26.5941 4.87491 24.7155 5.64685 22.9814C6.41878 21.2472 7.54716 19.6967 8.95785 18.4318V11.9938C8.95785 9.60689 9.90163 7.3177 11.5816 5.62987C13.2615 3.94205 15.5399 2.99384 17.9157 2.99384C20.2915 2.99384 22.57 3.94205 24.2499 5.62987C25.9298 7.3177 26.8736 9.60689 26.8736 11.9938V18.4318C28.2843 19.6967 29.4127 21.2472 30.1846 22.9814C30.9565 24.7155 31.3545 26.5941 31.3525 28.4938H22.3947ZM17.9157 29.9938C18.3117 29.9938 18.6914 29.8358 18.9714 29.5545C19.2514 29.2732 19.4087 28.8917 19.4087 28.4938H16.4227C16.4227 28.8917 16.58 29.2732 16.86 29.5545C17.14 29.8358 17.5198 29.9938 17.9157 29.9938Z" fill="current"/>
</svg>
