<svg width="80" height="80" viewBox="0 0 80 80" fill="none" xmlns="http://www.w3.org/2000/svg">
<path d="M33.3333 66.6667V73.3333H26.6667V66.6667H16.6667V6.66666H53.3333C55.9855 6.66666 58.529 7.72022 60.4044 9.59559C62.2798 11.471 63.3333 14.0145 63.3333 16.6667V56.6667C63.3333 59.3188 62.2798 61.8624 60.4044 63.7377C58.529 65.6131 55.9855 66.6667 53.3333 66.6667H33.3333ZM26.6667 13.3333H23.3333V60H26.6667V13.3333ZM33.3333 13.3333V60H53.3333C54.2174 60 55.0652 59.6488 55.6904 59.0237C56.3155 58.3986 56.6667 57.5507 56.6667 56.6667V16.6667C56.6667 15.7826 56.3155 14.9348 55.6904 14.3096C55.0652 13.6845 54.2174 13.3333 53.3333 13.3333H33.3333ZM36.6667 20H53.3333V26.6667H36.6667V20ZM36.6667 30H53.3333V36.6667H36.6667V30Z" fill="current"/>
</svg>
