<svg width="40" height="40" viewBox="0 0 40 40" fill="inherit" xmlns="http://www.w3.org/2000/svg">
<path d="M33.3333 16.6667V13.3333C33.3333 12.8913 33.1577 12.4674 32.8452 12.1548C32.5326 11.8423 32.1087 11.6667 31.6666 11.6667H30V13.3333C30 13.7754 29.8244 14.1993 29.5118 14.5118C29.1993 14.8244 28.7753 15 28.3333 15C27.8913 15 27.4674 14.8244 27.1548 14.5118C26.8422 14.1993 26.6666 13.7754 26.6666 13.3333V11.6667H13.3333V13.3333C13.3333 13.7754 13.1577 14.1993 12.8452 14.5118C12.5326 14.8244 12.1087 15 11.6666 15C11.2246 15 10.8007 14.8244 10.4881 14.5118C10.1756 14.1993 9.99998 13.7754 9.99998 13.3333V11.6667H8.33331C7.89129 11.6667 7.46736 11.8423 7.1548 12.1548C6.84224 12.4674 6.66665 12.8913 6.66665 13.3333V16.6667H33.3333ZM33.3333 20H6.66665V30C6.66665 30.442 6.84224 30.8659 7.1548 31.1785C7.46736 31.4911 7.89129 31.6667 8.33331 31.6667H31.6666C32.1087 31.6667 32.5326 31.4911 32.8452 31.1785C33.1577 30.8659 33.3333 30.442 33.3333 30V20ZM30 8.33333H31.6666C32.9927 8.33333 34.2645 8.86012 35.2022 9.7978C36.1399 10.7355 36.6666 12.0073 36.6666 13.3333V30C36.6666 31.3261 36.1399 32.5979 35.2022 33.5355C34.2645 34.4732 32.9927 35 31.6666 35H8.33331C7.00723 35 5.73546 34.4732 4.79778 33.5355C3.8601 32.5979 3.33331 31.3261 3.33331 30L3.33331 13.3333C3.33331 12.0073 3.8601 10.7355 4.79778 9.7978C5.73546 8.86012 7.00723 8.33333 8.33331 8.33333H9.99998V6.66667C9.99998 6.22464 10.1756 5.80072 10.4881 5.48816C10.8007 5.17559 11.2246 5 11.6666 5C12.1087 5 12.5326 5.17559 12.8452 5.48816C13.1577 5.80072 13.3333 6.22464 13.3333 6.66667V8.33333H26.6666V6.66667C26.6666 6.22464 26.8422 5.80072 27.1548 5.48816C27.4674 5.17559 27.8913 5 28.3333 5C28.7753 5 29.1993 5.17559 29.5118 5.48816C29.8244 5.80072 30 6.22464 30 6.66667V8.33333Z" fill="currentColor"/>
</svg>
