<svg width="60" height="60" viewBox="0 0 60 60" fill="none" xmlns="http://www.w3.org/2000/svg">
<path d="M23.5 26.25L35.425 5.6C33.675 5.225 31.875 5 30 5C24 5 18.5 7.125 14.2 10.625L23.35 26.5L23.5 26.25ZM53.85 22.5C51.55 15.2 45.975 9.35 38.85 6.65L29.7 22.5H53.85ZM54.5 25H35.775L36.5 26.25L48.4 46.875C52.5 42.425 55 36.525 55 30C55 28.275 54.825 26.625 54.5 25ZM21.35 30L11.6 13.125C7.525 17.575 5 23.475 5 30C5 31.725 5.175 33.375 5.5 35H24.225L21.35 30ZM6.15 37.5C8.45 44.8 14.025 50.65 21.15 53.35L30.3 37.5H6.15ZM34.325 37.5L24.575 54.4C26.325 54.775 28.125 55 30 55C36 55 41.5 52.875 45.8 49.375L36.65 33.5L34.325 37.5Z" fill="black" fill-opacity="0.87"/>
</svg>
