<svg width="31" height="32" viewBox="0 0 31 32" fill="none" xmlns="http://www.w3.org/2000/svg">
<path d="M17.302 15.9998L20.951 19.7705C21.193 20.0207 21.329 20.36 21.329 20.7138C21.329 21.0677 21.193 21.407 20.951 21.6572C20.709 21.9074 20.3807 22.0479 20.0384 22.0479C19.6961 22.0479 19.3679 21.9074 19.1259 21.6572L15.4781 17.8852L11.8304 21.6572C11.5884 21.9074 11.2601 22.0479 10.9179 22.0479C10.5756 22.0479 10.2473 21.9074 10.0053 21.6572C9.76326 21.407 9.62729 21.0677 9.62729 20.7138C9.62729 20.36 9.76326 20.0207 10.0053 19.7705L13.6543 15.9998L10.0053 12.2292C9.76326 11.979 9.62729 11.6397 9.62729 11.2858C9.62729 10.932 9.76326 10.5927 10.0053 10.3425C10.2473 10.0923 10.5756 9.95176 10.9179 9.95176C11.2601 9.95176 11.5884 10.0923 11.8304 10.3425L15.4781 14.1145L19.1259 10.3425C19.3679 10.0923 19.6961 9.95176 20.0384 9.95176C20.3807 9.95176 20.709 10.0923 20.951 10.3425C21.193 10.5927 21.329 10.932 21.329 11.2858C21.329 11.6397 21.193 11.979 20.951 12.2292L17.302 15.9998ZM15.4781 29.3332C8.35427 29.3332 2.57959 23.3638 2.57959 15.9998C2.57959 8.63584 8.35427 2.6665 15.4781 2.6665C22.602 2.6665 28.3767 8.63584 28.3767 15.9998C28.3767 23.3638 22.602 29.3332 15.4781 29.3332ZM15.4781 26.6665C18.2149 26.6665 20.8395 25.5427 22.7747 23.5423C24.7098 21.5419 25.797 18.8288 25.797 15.9998C25.797 13.1709 24.7098 10.4578 22.7747 8.45737C20.8395 6.45698 18.2149 5.33317 15.4781 5.33317C12.7414 5.33317 10.1168 6.45698 8.18162 8.45737C6.24646 10.4578 5.1593 13.1709 5.1593 15.9998C5.1593 18.8288 6.24646 21.5419 8.18162 23.5423C10.1168 25.5427 12.7414 26.6665 15.4781 26.6665V26.6665Z" fill="current"/>
</svg>
