<svg width="31" height="28" viewBox="0 0 31 28" fill="none" xmlns="http://www.w3.org/2000/svg">
<path d="M13.0049 4.66666V6.99999H17.898V4.66666H13.0049ZM20.3446 4.66666H21.5679C22.2167 4.66666 22.839 4.91249 23.2979 5.35008C23.7567 5.78766 24.0144 6.38116 24.0144 6.99999V23.3333C24.0144 23.9522 23.7567 24.5457 23.2979 24.9832C22.839 25.4208 22.2167 25.6667 21.5679 25.6667H9.33503C8.68616 25.6667 8.06386 25.4208 7.60504 24.9832C7.14622 24.5457 6.88846 23.9522 6.88846 23.3333V6.99999C6.88846 6.38116 7.14622 5.78766 7.60504 5.35008C8.06386 4.91249 8.68616 4.66666 9.33503 4.66666H10.5583C10.5583 4.04782 10.8161 3.45433 11.2749 3.01675C11.7337 2.57916 12.356 2.33333 13.0049 2.33333H17.898C18.5469 2.33333 19.1692 2.57916 19.628 3.01675C20.0868 3.45433 20.3446 4.04782 20.3446 4.66666ZM20.3446 6.99999C20.3446 7.61883 20.0868 8.21233 19.628 8.64991C19.1692 9.0875 18.5469 9.33333 17.898 9.33333H13.0049C12.356 9.33333 11.7337 9.0875 11.2749 8.64991C10.8161 8.21233 10.5583 7.61883 10.5583 6.99999H9.33503V23.3333H21.5679V6.99999H20.3446ZM11.7816 11.6667H19.1213C19.4457 11.6667 19.7569 11.7896 19.9863 12.0084C20.2157 12.2272 20.3446 12.5239 20.3446 12.8333C20.3446 13.1427 20.2157 13.4395 19.9863 13.6583C19.7569 13.8771 19.4457 14 19.1213 14H11.7816C11.4572 14 11.146 13.8771 10.9166 13.6583C10.6872 13.4395 10.5583 13.1427 10.5583 12.8333C10.5583 12.5239 10.6872 12.2272 10.9166 12.0084C11.146 11.7896 11.4572 11.6667 11.7816 11.6667ZM11.7816 17.5H19.1213C19.4457 17.5 19.7569 17.6229 19.9863 17.8417C20.2157 18.0605 20.3446 18.3572 20.3446 18.6667C20.3446 18.9761 20.2157 19.2728 19.9863 19.4916C19.7569 19.7104 19.4457 19.8333 19.1213 19.8333H11.7816C11.4572 19.8333 11.146 19.7104 10.9166 19.4916C10.6872 19.2728 10.5583 18.9761 10.5583 18.6667C10.5583 18.3572 10.6872 18.0605 10.9166 17.8417C11.146 17.6229 11.4572 17.5 11.7816 17.5Z" fill="current"/>
</svg>
