<svg width="28" height="28" viewBox="0 0 28 28" fill="none" xmlns="http://www.w3.org/2000/svg">
<path d="M14 2.33337C10.9469 2.34142 8.0182 3.544 5.84046 5.68384V3.50004C5.84046 3.19062 5.71754 2.89388 5.49875 2.67508C5.27996 2.45629 4.98321 2.33337 4.67379 2.33337C4.36437 2.33337 4.06763 2.45629 3.84884 2.67508C3.63004 2.89388 3.50713 3.19062 3.50713 3.50004V8.75004C3.50709 8.90326 3.53724 9.05499 3.59585 9.19655C3.65447 9.33812 3.7404 9.46674 3.84875 9.57509C3.95709 9.68343 4.08572 9.76937 4.22728 9.82798C4.36885 9.8866 4.52057 9.91675 4.67379 9.91671H9.92379C10.2332 9.91671 10.53 9.79379 10.7488 9.575C10.9675 9.35621 11.0905 9.05946 11.0905 8.75004C11.0905 8.44062 10.9675 8.14388 10.7488 7.92508C10.53 7.70629 10.2332 7.58337 9.92379 7.58337H7.25486C8.75164 6.02162 10.7456 5.0299 12.8942 4.77861C15.0427 4.52731 17.2117 5.03213 19.0285 6.20634C20.8453 7.38054 22.1964 9.15081 22.8498 11.213C23.5031 13.2752 23.4178 15.5005 22.6087 17.5067C21.7995 19.5128 20.3169 21.1745 18.4156 22.2063C16.5143 23.2381 14.313 23.5755 12.19 23.1606C10.0669 22.7456 8.15469 21.6043 6.78177 19.9326C5.40886 18.2609 4.66099 16.1632 4.66668 14C4.66668 13.6906 4.54376 13.3939 4.32497 13.1751C4.10618 12.9563 3.80943 12.8334 3.50001 12.8334C3.19059 12.8334 2.89384 12.9563 2.67505 13.1751C2.45626 13.3939 2.33334 13.6906 2.33334 14C2.33334 16.3075 3.01758 18.5631 4.29953 20.4817C5.58148 22.4003 7.40357 23.8956 9.53537 24.7786C11.6672 25.6617 14.013 25.8927 16.2761 25.4425C18.5392 24.9924 20.618 23.8812 22.2496 22.2496C23.8812 20.618 24.9923 18.5392 25.4425 16.2761C25.8927 14.013 25.6616 11.6672 24.7786 9.5354C23.8956 7.4036 22.4002 5.58151 20.4817 4.29956C18.5631 3.01761 16.3075 2.33337 14 2.33337Z" fill="current"/>
<path d="M16.3333 15.1667H14C13.8468 15.1667 13.6951 15.1366 13.5535 15.078C13.4119 15.0194 13.2833 14.9334 13.175 14.8251C13.0666 14.7167 12.9807 14.5881 12.9221 14.4466C12.8635 14.305 12.8333 14.1533 12.8333 14V10.5C12.8333 10.1906 12.9563 9.89388 13.1751 9.67508C13.3938 9.45629 13.6906 9.33337 14 9.33337C14.3094 9.33337 14.6062 9.45629 14.825 9.67508C15.0438 9.89388 15.1667 10.1906 15.1667 10.5V12.8334H16.3333C16.6428 12.8334 16.9395 12.9563 17.1583 13.1751C17.3771 13.3939 17.5 13.6906 17.5 14C17.5 14.3095 17.3771 14.6062 17.1583 14.825C16.9395 15.0438 16.6428 15.1667 16.3333 15.1667Z" fill="current"/>
</svg>
