<svg width="29" height="24" viewBox="0 0 43 37" fill="none" color="inherit" xmlns="http://www.w3.org/2000/svg">
    <path d="M21.5644 3.01999C16.9092 3.0304 12.4436 4.58689 9.123 7.35645V4.52999C9.123 4.12951 8.93558 3.74544 8.60197 3.46226C8.26836 3.17908 7.81589 3.01999 7.3441 3.01999C6.87231 3.01999 6.41984 3.17908 6.08623 3.46226C5.75262 3.74544 5.5652 4.12951 5.5652 4.52999V11.325C5.56514 11.5233 5.61111 11.7197 5.70049 11.9029C5.78987 12.0861 5.9209 12.2526 6.08609 12.3928C6.25129 12.5331 6.44742 12.6443 6.66327 12.7202C6.87913 12.796 7.11048 12.835 7.3441 12.835H15.3491C15.8209 12.835 16.2734 12.6759 16.607 12.3927C16.9406 12.1095 17.128 11.7255 17.128 11.325C17.128 10.9245 16.9406 10.5404 16.607 10.2573C16.2734 9.97408 15.8209 9.81499 15.3491 9.81499H11.2796C13.5619 7.79363 16.6022 6.51006 19.8783 6.18482C23.1543 5.85957 26.4616 6.51296 29.2318 8.03271C32.0019 9.55247 34.0621 11.8437 35.0583 14.5128C36.0545 17.1818 35.9245 20.062 34.6906 22.6586C33.4568 25.2551 31.1962 27.4059 28.2972 28.7413C25.3981 30.0767 22.0417 30.5134 18.8046 29.9763C15.5674 29.4393 12.6517 27.962 10.5583 25.7984C8.46491 23.6347 7.32458 20.9198 7.33325 18.12C7.33325 17.7195 7.14583 17.3354 6.81222 17.0523C6.47861 16.7691 6.02614 16.61 5.55435 16.61C5.08256 16.61 4.63009 16.7691 4.29648 17.0523C3.96287 17.3354 3.77545 17.7195 3.77545 18.12C3.77545 21.1065 4.81876 24.0259 6.77344 26.5091C8.72812 28.9923 11.5064 30.9277 14.7569 32.0706C18.0074 33.2135 21.5842 33.5125 25.0349 32.9299C28.4856 32.3472 31.6553 30.9091 34.1432 28.7973C36.631 26.6855 38.3252 23.995 39.0116 21.0659C39.698 18.1367 39.3457 15.1006 37.9993 12.3415C36.6529 9.58231 34.3729 7.22401 31.4475 5.5648C28.5221 3.90559 25.0828 3.01999 21.5644 3.01999Z" fill="currentColor"/>
    <path d="M25.1222 19.63H21.5644C21.3308 19.6301 21.0994 19.591 20.8836 19.5152C20.6677 19.4393 20.4716 19.3281 20.3064 19.1878C20.1412 19.0476 20.0102 18.8811 19.9208 18.6979C19.8314 18.5147 19.7855 18.3183 19.7855 18.12V13.59C19.7855 13.1895 19.9729 12.8055 20.3066 12.5223C20.6402 12.2391 21.0926 12.08 21.5644 12.08C22.0362 12.08 22.4887 12.2391 22.8223 12.5223C23.1559 12.8055 23.3433 13.1895 23.3433 13.59V16.61H25.1222C25.594 16.61 26.0465 16.7691 26.3801 17.0523C26.7137 17.3355 26.9011 17.7195 26.9011 18.12C26.9011 18.5205 26.7137 18.9046 26.3801 19.1877C26.0465 19.4709 25.594 19.63 25.1222 19.63Z" fill="currentColor"/>
</svg>
