<svg width="37" height="36" viewBox="0 0 37 36" fill="none" xmlns="http://www.w3.org/2000/svg">
<path d="M17.7015 21.7438H29.081C29.477 21.7438 29.8567 21.5858 30.1367 21.3045C30.4167 21.0232 30.574 20.6417 30.574 20.2438V8.24384C30.574 7.84601 30.4167 7.46448 30.1367 7.18318C29.8567 6.90187 29.477 6.74384 29.081 6.74384H8.17931C7.78335 6.74384 7.4036 6.90187 7.12362 7.18318C6.84363 7.46448 6.68633 7.84601 6.68633 8.24384V20.2438C6.68633 20.6417 6.84363 21.0232 7.12362 21.3045C7.4036 21.5858 7.78335 21.7438 8.17931 21.7438C8.57527 21.7438 8.95502 21.9019 9.23501 22.1832C9.51499 22.4645 9.67229 22.846 9.67229 23.2438V27.7633L17.7015 21.7438ZM8.17931 3.74384H29.081C30.2689 3.74384 31.4081 4.21794 32.2481 5.06185C33.088 5.90577 33.5599 7.05036 33.5599 8.24384V20.2438C33.5599 21.4373 33.088 22.5819 32.2481 23.4258C31.4081 24.2697 30.2689 24.7438 29.081 24.7438H18.6929L9.07211 31.9558C8.85009 32.1223 8.58636 32.2234 8.31042 32.2478C8.03448 32.2722 7.75721 32.2191 7.50963 32.0942C7.26205 31.9694 7.05392 31.7778 6.90852 31.5409C6.76313 31.304 6.68619 31.0312 6.68633 30.7528V24.7438C5.89441 24.7438 5.13492 24.4278 4.57494 23.8652C4.01497 23.3025 3.70038 22.5395 3.70038 21.7438V8.24384C3.70038 7.05036 4.17226 5.90577 5.01223 5.06185C5.85219 4.21794 6.99142 3.74384 8.17931 3.74384V3.74384Z" fill="current"/>
</svg>
