<svg width="80" height="81" viewBox="0 0 80 81" fill="none" xmlns="http://www.w3.org/2000/svg">
<path d="M64.8 30.6972L51.3667 17.2639H36.6667V23.9306H48.6333L55.3 30.5972H16.6667C7.33333 30.5972 0 37.9306 0 47.2639C0 56.5972 7.33333 63.9306 16.6667 63.9306C24.8667 63.9306 31.5 58.2972 33 50.5972H38.5L47.7333 41.3639C47.0333 43.1639 46.6667 45.1639 46.6667 47.2639C46.6667 56.5972 54 63.9306 63.3333 63.9306C72.6667 63.9306 80 56.5972 80 47.2639C80 38.4306 73.4333 31.3639 64.8 30.6972V30.6972ZM26.0667 50.5972C24.6667 54.4306 20.9333 57.2639 16.6667 57.2639C11.2333 57.2639 6.66667 52.6972 6.66667 47.2639C6.66667 41.8306 11.2333 37.2639 16.6667 37.2639C20.9333 37.2639 24.6667 40.0972 26.0667 43.9306H16.6667V50.5972H26.0667ZM63.3333 57.2639C57.8 57.2639 53.3333 52.7972 53.3333 47.2639C53.3333 41.7306 57.8 37.2639 63.3333 37.2639C68.8667 37.2639 73.3333 41.7306 73.3333 47.2639C73.3333 52.7972 68.8667 57.2639 63.3333 57.2639Z" fill="current"/>
</svg>
