<svg width="29" height="24" viewBox="0 0 44 36" fill="none" xmlns="http://www.w3.org/2000/svg">
<path d="M11.5594 6C10.6089 6 9.69734 6.31607 9.02522 6.87868C8.35311 7.44129 7.97552 8.20435 7.97552 9V27C7.97552 27.7956 8.35311 28.5587 9.02522 29.1213C9.69734 29.6839 10.6089 30 11.5594 30H33.0629C34.0134 30 34.925 29.6839 35.5971 29.1213C36.2693 28.5587 36.6468 27.7956 36.6468 27V9C36.6468 8.20435 36.2693 7.44129 35.5971 6.87868C34.925 6.31607 34.0134 6 33.0629 6H11.5594ZM11.5594 3H33.0629C34.964 3 36.7871 3.63214 38.1314 4.75736C39.4756 5.88258 40.2308 7.4087 40.2308 9V27C40.2308 28.5913 39.4756 30.1174 38.1314 31.2426C36.7871 32.3679 34.964 33 33.0629 33H11.5594C9.65841 33 7.83524 32.3679 6.49101 31.2426C5.14678 30.1174 4.3916 28.5913 4.3916 27V9C4.3916 7.4087 5.14678 5.88258 6.49101 4.75736C7.83524 3.63214 9.65841 3 11.5594 3V3ZM24.1031 19.5V25.5C24.1031 25.8978 23.9143 26.2794 23.5783 26.5607C23.2422 26.842 22.7864 27 22.3112 27C21.8359 27 21.3801 26.842 21.0441 26.5607C20.708 26.2794 20.5192 25.8978 20.5192 25.5V19.5H13.3514C12.8761 19.5 12.4203 19.342 12.0843 19.0607C11.7482 18.7794 11.5594 18.3978 11.5594 18C11.5594 17.6022 11.7482 17.2206 12.0843 16.9393C12.4203 16.658 12.8761 16.5 13.3514 16.5H20.5192V10.5C20.5192 10.1022 20.708 9.72064 21.0441 9.43934C21.3801 9.15804 21.8359 9 22.3112 9C22.7864 9 23.2422 9.15804 23.5783 9.43934C23.9143 9.72064 24.1031 10.1022 24.1031 10.5V16.5H31.271C31.7462 16.5 32.202 16.658 32.5381 16.9393C32.8741 17.2206 33.0629 17.6022 33.0629 18C33.0629 18.3978 32.8741 18.7794 32.5381 19.0607C32.202 19.342 31.7462 19.5 31.271 19.5H24.1031Z" fill="current"/>
</svg>
