<svg width="45" height="37" viewBox="0 0 45 37" fill="none" xmlns="http://www.w3.org/2000/svg">
<path d="M33.2779 24.16H35.0818C35.5603 24.16 36.0191 24.0009 36.3574 23.7177C36.6957 23.4345 36.8857 23.0505 36.8857 22.65V13.59C36.8857 13.1895 36.6957 12.8054 36.3574 12.5223C36.0191 12.2391 35.5603 12.08 35.0818 12.08H9.82718C9.34875 12.08 8.88992 12.2391 8.55163 12.5223C8.21333 12.8054 8.02327 13.1895 8.02327 13.59V22.65C8.02327 23.0505 8.21333 23.4345 8.55163 23.7177C8.88992 24.0009 9.34875 24.16 9.82718 24.16H11.6311V16.61H33.2779V24.16ZM11.6311 9.05999V3.01999H33.2779V9.05999H35.0818C36.5171 9.05999 37.8936 9.53726 38.9085 10.3868C39.9234 11.2363 40.4936 12.3886 40.4936 13.59V22.65C40.4936 23.8514 39.9234 25.0036 38.9085 25.8532C37.8936 26.7027 36.5171 27.18 35.0818 27.18H33.2779V33.22H11.6311V27.18H9.82718C8.3919 27.18 7.01541 26.7027 6.00052 25.8532C4.98563 25.0036 4.41547 23.8514 4.41547 22.65V13.59C4.41547 12.3886 4.98563 11.2363 6.00052 10.3868C7.01541 9.53726 8.3919 9.05999 9.82718 9.05999H11.6311ZM15.2389 30.2H29.6701V19.63H15.2389V30.2ZM15.2389 9.05999H29.6701V6.03999H15.2389V9.05999Z" fill="current"/>
</svg>
