<svg width="80" height="81" viewBox="0 0 80 81" fill="none" xmlns="http://www.w3.org/2000/svg">
<path d="M39.9666 7.26367C21.5666 7.26367 6.66663 22.197 6.66663 40.597C6.66663 58.997 21.5666 73.9303 39.9666 73.9303C58.4 73.9303 73.3333 58.997 73.3333 40.597C73.3333 22.197 58.4 7.26367 39.9666 7.26367ZM40 67.2637C25.2666 67.2637 13.3333 55.3303 13.3333 40.597C13.3333 25.8637 25.2666 13.9303 40 13.9303C54.7333 13.9303 66.6666 25.8637 66.6666 40.597C66.6666 55.3303 54.7333 67.2637 40 67.2637ZM41.6666 23.9303H36.6666V43.9303L54.1666 54.4303L56.6666 50.3303L41.6666 41.4303V23.9303Z" fill="current"/>
</svg>
