<svg width="192" height="128" viewBox="0 0 192 128" fill="none" xmlns="http://www.w3.org/2000/svg">
<path d="M103.854 44.8747V74.9654C103.854 76.3799 103.012 77.7364 101.514 78.7366C100.016 79.7368 97.9841 80.2987 95.8654 80.2987C93.7466 80.2987 91.7146 79.7368 90.2164 78.7366C88.7183 77.7364 87.8766 76.3799 87.8766 74.9654V44.8747L78.9212 50.8587C77.4211 51.8595 75.387 52.4214 73.2663 52.4209C71.1456 52.4204 69.1121 51.8575 67.613 50.856C66.114 49.8546 65.2723 48.4966 65.273 47.0808C65.2738 45.665 66.1169 44.3075 67.617 43.3067L90.2173 28.2294C91.7154 27.2295 93.747 26.6678 95.8654 26.6678C97.9837 26.6678 100.015 27.2295 101.513 28.2294L124.114 43.312C124.856 43.8079 125.445 44.3965 125.846 45.0443C126.248 45.692 126.454 46.3862 126.454 47.0873C126.453 47.7883 126.246 48.4824 125.844 49.13C125.442 49.7775 124.852 50.3659 124.11 50.8614C123.367 51.3569 122.485 51.7499 121.515 52.0179C120.545 52.286 119.505 52.4238 118.455 52.4236C117.405 52.4233 116.365 52.285 115.395 52.0165C114.425 51.748 113.544 51.3546 112.802 50.8587L103.854 44.8747ZM47.9327 90.6667H143.798C145.917 90.6667 147.949 91.2286 149.447 92.2288C150.945 93.229 151.787 94.5856 151.787 96C151.787 97.4145 150.945 98.7711 149.447 99.7713C147.949 100.771 145.917 101.333 143.798 101.333H47.9327C45.8139 101.333 43.7819 100.771 42.2838 99.7713C40.7856 98.7711 39.9439 97.4145 39.9439 96C39.9439 94.5856 40.7856 93.229 42.2838 92.2288C43.7819 91.2286 45.8139 90.6667 47.9327 90.6667V90.6667Z" fill="current" fill-opacity="0.8"/>
</svg>
